<svg xmlns="http://www.w3.org/2000/svg" width="21.533" height="21.533" viewBox="0 0 21.533 21.533">
  <g id="calendar_4_" data-name="calendar (4)" transform="translate(-2 -2)">
    <path id="Path_2291" data-name="Path 2291" d="M20.662,5.23a1.436,1.436,0,0,0-1.436-1.436h-.359V4.871a.718.718,0,0,1-.718.718h-.718a.718.718,0,0,0,.718-.718V2.718a.718.718,0,0,0-1.436,0V3.794H14.92V4.871a.718.718,0,0,1-.718.718h-.718a.718.718,0,0,0,.718-.718V2.718a.718.718,0,0,0-1.436,0V3.794H10.613V4.871a.718.718,0,0,1-.718.718H9.178A.718.718,0,0,0,9.9,4.871V2.718a.718.718,0,0,0-1.436,0V3.794H6.666V4.871a.718.718,0,0,1-.718.718H5.23a.718.718,0,0,0,.718-.718V2.718a.718.718,0,0,0-1.436,0V3.794H3.436A1.436,1.436,0,0,0,2,5.23V7.383H20.662Z" fill="rgba(0,0,0,0.5)"/>
    <path id="Path_2292" data-name="Path 2292" d="M43.948,40A3.948,3.948,0,1,0,47.9,43.948,3.948,3.948,0,0,0,43.948,40Zm0,4.666a.713.713,0,0,1-.26-.05l-1.31,1.048-.449-.561,1.312-1.049a.685.685,0,0,1,.348-.724V41.077h.718V43.33a.716.716,0,0,1-.359,1.336Z" transform="translate(-24.362 -24.362)" fill="rgba(0,0,0,0.5)"/>
    <path id="Path_2293" data-name="Path 2293" d="M3.436,32.279H15.279a4.666,4.666,0,0,1,2.512-6.1H16V24.024H18.15v2.022a4.595,4.595,0,0,1,2.512-.1V19H2V30.843a1.435,1.435,0,0,0,1.436,1.436ZM16,20.077H18.15V22.23H16Zm-3.948,0H14.2V22.23H12.049Zm0,3.948H14.2v2.153H12.049Zm0,3.948H14.2v2.153H12.049ZM8.1,20.077h2.153V22.23H8.1Zm0,3.948h2.153v2.153H8.1Zm0,3.948h2.153v2.153H8.1Zm-3.948-7.9H6.307V22.23H4.153Zm0,3.948H6.307v2.153H4.153Zm0,3.948H6.307v2.153H4.153Z" transform="translate(0 -10.899)" fill="rgba(0,0,0,0.5)"/>
  </g>
</svg>
