<svg xmlns="http://www.w3.org/2000/svg" width="34.1" height="20.233" viewBox="0 0 34.1 20.233">
  <g id="cheque" transform="translate(0.001 -18.901)">
    <path id="Path_2730" data-name="Path 2730" d="M9.012,205.3H41.7a.466.466,0,0,1,.477.455V224.17a.466.466,0,0,1-.477.455H9.012a.466.466,0,0,1-.477-.455V205.756a.466.466,0,0,1,.477-.455Zm0,0" transform="translate(-8.081 -185.946)" fill="none"/>
    <g id="Group_18199" data-name="Group 18199" transform="translate(-0.001 18.901)">
      <path id="Path_2735" data-name="Path 2735" d="M32.736,196.766H30.462a.455.455,0,1,0,0,.909h2.273a.455.455,0,0,1,.455.455v17.5a.455.455,0,0,1-.455.455H1.364a.455.455,0,0,1-.455-.455v-17.5a.455.455,0,0,1,.455-.455H30.69a.455.455,0,1,0,0-.909H1.364A1.364,1.364,0,0,0,0,198.13v17.5A1.364,1.364,0,0,0,1.364,217H32.736a1.364,1.364,0,0,0,1.364-1.364v-17.5A1.364,1.364,0,0,0,32.736,196.766Zm0,0" transform="translate(0.001 -196.766)" fill="rgba(0,0,0,0.5)"/>
      <path id="Path_2736" data-name="Path 2736" d="M69.175,231.354a.455.455,0,1,0-.909,0v.909a.455.455,0,1,0,.909,0Zm0,0" transform="translate(-64.628 -229.649)" fill="rgba(0,0,0,0.5)"/>
      <path id="Path_2737" data-name="Path 2737" d="M69.175,274.022a.455.455,0,1,0-.909,0v.909a.455.455,0,0,0,.909,0Zm0,0" transform="translate(-64.628 -270.043)" fill="rgba(0,0,0,0.5)"/>
      <path id="Path_2738" data-name="Path 2738" d="M69.175,316.689a.455.455,0,0,0-.909,0v.909a.455.455,0,1,0,.909,0Zm0,0" transform="translate(-64.628 -310.438)" fill="rgba(0,0,0,0.5)"/>
      <path id="Path_2739" data-name="Path 2739" d="M69.175,359.354a.455.455,0,1,0-.909,0v.909a.455.455,0,1,0,.909,0Zm0,0" transform="translate(-64.628 -350.829)" fill="rgba(0,0,0,0.5)"/>
      <path id="Path_2753" data-name="Path 2753" d="M69.175,359.354a.455.455,0,1,0-.909,0v.909a.455.455,0,1,0,.909,0Zm0,0" transform="translate(-64.628 -346.282)" fill="rgba(0,0,0,0.5)"/>
      <path id="Path_2740" data-name="Path 2740" d="M68.72,401.566a.455.455,0,0,0-.455.455v.909a.455.455,0,0,0,.909,0v-.909A.455.455,0,0,0,68.72,401.566Zm0,0" transform="translate(-64.628 -391.222)" fill="rgba(0,0,0,0.5)"/>
      <path id="Path_2754" data-name="Path 2754" d="M68.72,401.566a.455.455,0,0,0-.455.455v.909a.455.455,0,0,0,.909,0v-.909A.455.455,0,0,0,68.72,401.566Zm0,0" transform="translate(-64.628 -386.676)" fill="rgba(0,0,0,0.5)"/>
      <path id="Path_2755" data-name="Path 2755" d="M68.72,401.566a.455.455,0,0,0-.455.455v.909a.455.455,0,0,0,.909,0v-.909A.455.455,0,0,0,68.72,401.566Zm0,0" transform="translate(-64.628 -384.402)" fill="rgba(0,0,0,0.5)"/>
      <path id="Path_2741" data-name="Path 2741" d="M126.285,233.627a.455.455,0,0,0,.455-.455v-1.819a.455.455,0,0,0-.455-.455H119.92a.455.455,0,0,0-.455.455v1.819a.455.455,0,0,0,.455.455Zm-5.911-1.819h5.456v.91h-5.456Zm0,0" transform="translate(-113.1 -229.08)" fill="rgba(0,0,0,0.5)"/>
      <path id="Path_2743" data-name="Path 2743" d="M307.2,384.955a.455.455,0,0,0,.455.455H312.2a.455.455,0,1,0,0-.909h-4.547A.455.455,0,0,0,307.2,384.955Zm0,0" transform="translate(-284.579 -369.382)" fill="rgba(0,0,0,0.5)"/>
      <path id="Path_2744" data-name="Path 2744" d="M307.654,419.542h7.275a.455.455,0,1,0,0-.909h-7.275a.455.455,0,1,0,0,.909Zm0,0" transform="translate(-284.579 -401.128)" fill="rgba(0,0,0,0.5)"/>
      <path id="Path_2745" data-name="Path 2745" d="M110.934,316.689a.455.455,0,0,0,.455.455H122.3a.455.455,0,1,0,0-.909H111.388A.455.455,0,0,0,110.934,316.689Zm0,0" transform="translate(-105.023 -309.869)" fill="rgba(0,0,0,0.5)"/>
      <path id="Path_2756" data-name="Path 2756" d="M110.934,316.689a.455.455,0,0,0,.455.455H122.3a.455.455,0,1,0,0-.909H111.388A.455.455,0,0,0,110.934,316.689Zm0,0" transform="translate(-105.023 -305.891)" fill="rgba(0,0,0,0.5)"/>
    </g>
  </g>
</svg>
