<svg xmlns="http://www.w3.org/2000/svg" width="36.457" height="45.119" viewBox="0 0 36.457 45.119">
  <g id="google-docs_1_" data-name="google-docs (1)" transform="translate(0)">
    <path id="Path_2584" data-name="Path 2584" d="M107.457,12.71V43.3a1.929,1.929,0,0,1-2.025,1.816H73.025A1.929,1.929,0,0,1,71,43.3V1.816A1.929,1.929,0,0,1,73.025,0H93.279Z" transform="translate(-71 0)" fill="#2196f3"/>
    <path id="Path_2585" data-name="Path 2585" d="M391.227,113.32v29.718a1.617,1.617,0,0,1-1.616,1.62h2.424a1.617,1.617,0,0,0,1.616-1.62V115.749Z" transform="translate(-357.193 -99.538)" fill="#1e88e5"/>
    <path id="Path_2586" data-name="Path 2586" d="M308.421,11.336h-9.694a1.618,1.618,0,0,1-1.616-1.62V0Z" transform="translate(-271.964)" fill="#90caf9"/>
    <g id="Group_17766" data-name="Group 17766" transform="translate(9.119 18.373)">
      <path id="Path_2587" data-name="Path 2587" d="M157.109,221.342h-15.79a1.215,1.215,0,1,1,0-2.429h15.79a1.215,1.215,0,0,1,0,2.429Z" transform="translate(-140.104 -218.913)" fill="#fafafa"/>
      <path id="Path_2588" data-name="Path 2588" d="M157.109,283.153h-15.79a1.215,1.215,0,1,1,0-2.429h15.79a1.215,1.215,0,0,1,0,2.429Z" transform="translate(-140.104 -275.866)" fill="#fafafa"/>
      <path id="Path_2589" data-name="Path 2589" d="M157.109,344.964h-15.79a1.215,1.215,0,0,1,0-2.429h15.79a1.215,1.215,0,0,1,0,2.429Z" transform="translate(-140.104 -332.818)" fill="#fafafa"/>
      <path id="Path_2590" data-name="Path 2590" d="M150.307,406.774h-8.988a1.215,1.215,0,0,1,0-2.429h8.988a1.215,1.215,0,0,1,0,2.429Z" transform="translate(-140.104 -389.77)" fill="#fafafa"/>
    </g>
  </g>
</svg>
