<svg width="21" height="10" viewBox="0 0 21 10" fill="none" xmlns="http://www.w3.org/2000/svg">
<path d="M19.6101 1.24997H0.860144C0.515131 1.24997 0.235161 0.969946 0.235161 0.624984C0.235161 0.27997 0.515182 0 0.860144 0H19.6101C19.9551 0 20.2351 0.280022 20.2351 0.624984C20.2351 0.969946 19.9551 1.24997 19.6101 1.24997Z" fill="white"/>
<path d="M0.860144 4.375H19.6101C19.9551 4.375 20.2351 4.65502 20.2351 4.99998C20.2351 5.34493 19.9551 5.62495 19.6101 5.62495H0.860144C0.515131 5.62495 0.235161 5.34493 0.235161 4.99998C0.235161 4.65502 0.515131 4.375 0.860144 4.375Z" fill="white"/>
<path d="M0.859894 8.75H13.3599C13.7049 8.75 13.9849 9.03002 13.9849 9.37498C13.9849 9.72 13.7048 9.99997 13.3599 9.99997H0.859894C0.51488 9.99997 0.23491 9.71995 0.23491 9.37498C0.234859 9.02997 0.51488 8.75 0.859894 8.75Z" fill="white"/>
</svg>
