<svg id="online-payment" xmlns="http://www.w3.org/2000/svg" width="28.75" height="28.75" viewBox="0 0 28.75 28.75">
  <g id="Group_18201" data-name="Group 18201">
    <g id="Group_18200" data-name="Group 18200">
      <path id="Path_2746" data-name="Path 2746" d="M27.4.9h-5.84V.449A.449.449,0,0,0,21.113,0H7.637a.449.449,0,0,0-.449.449V.9H1.348A1.348,1.348,0,0,0,0,2.246V22.012a.449.449,0,0,0,.449.449H10.683l-.719,3.594H8.984a.449.449,0,0,0-.449.449v1.348h-.9v.9H21.113v-.9h-.9V26.5a.449.449,0,0,0-.449-.449h-.98l-.719-3.594H28.3a.449.449,0,0,0,.449-.449V2.246A1.348,1.348,0,0,0,27.4.9ZM8.086.9H20.664V9.883H19.317V4.043a.449.449,0,0,0-.449-.449.9.9,0,0,1-.9-.9.449.449,0,0,0-.449-.449H11.231a.449.449,0,0,0-.449.449.9.9,0,0,1-.9.9.449.449,0,0,0-.449.449v5.84H8.086ZM14.375,5.84a4.492,4.492,0,0,0-4.043,2.532V4.435a1.8,1.8,0,0,0,1.291-1.291h5.5a1.8,1.8,0,0,0,1.291,1.291V8.372A4.492,4.492,0,0,0,14.375,5.84ZM17.94,9.883H10.81a3.593,3.593,0,0,1,7.13,0Zm.478,17.07h.9v.9H9.434v-.9h8.984Zm-7.538-.9.718-3.594h5.553l.719,3.594Zm16.972-4.492H.9V17.52H27.852Zm0-4.941H26.5V3.594a.449.449,0,0,0-.449-.449H22.461v.9h3.145V16.621H3.145V4.043H6.289v-.9H2.7a.449.449,0,0,0-.449.449V16.621H.9V2.246A.449.449,0,0,1,1.348,1.8h5.84V9.883H5.84v.9H22.91v-.9H21.563V1.8H27.4a.449.449,0,0,1,.449.449Z" fill="rgba(0,0,0,0.5)"/>
    </g>
  </g>
  <g id="Group_18203" data-name="Group 18203" transform="translate(13.027 17.969)">
    <g id="Group_18202" data-name="Group 18202">
      <path id="Path_2747" data-name="Path 2747" d="M233.348,320a1.348,1.348,0,1,0,1.348,1.348A1.348,1.348,0,0,0,233.348,320Zm0,1.8a.449.449,0,1,1,.449-.449A.449.449,0,0,1,233.348,321.8Z" transform="translate(-232 -320)" fill="rgba(0,0,0,0.5)"/>
    </g>
  </g>
  <g id="Group_18205" data-name="Group 18205" transform="translate(4.492 13.477)">
    <g id="Group_18204" data-name="Group 18204">
      <path id="Path_2748" data-name="Path 2748" d="M80.895,241.348V240H80v1.348q0,.019,0,.037a.88.88,0,0,0,.9.861h2.246v-.9Z" transform="translate(-79.996 -240)" fill="rgba(0,0,0,0.5)"/>
    </g>
  </g>
  <g id="Group_18207" data-name="Group 18207" transform="translate(8.549 1.558)">
    <g id="Group_18206" data-name="Group 18206" transform="translate(0 0)">
      <rect id="Rectangle_2589" data-name="Rectangle 2589" width="1.165" height="1.165" fill="rgba(0,0,0,0.5)"/>
    </g>
  </g>
  <g id="Group_18209" data-name="Group 18209" transform="translate(19.036 1.558)">
    <g id="Group_18208" data-name="Group 18208" transform="translate(0 0)">
      <rect id="Rectangle_2590" data-name="Rectangle 2590" width="1.165" height="1.165" transform="translate(0)" fill="rgba(0,0,0,0.5)"/>
    </g>
  </g>
</svg>
