<svg xmlns="http://www.w3.org/2000/svg" width="31.173" height="31.17" viewBox="0 0 31.173 31.17">
  <g id="payment-method" transform="translate(0 -0.023)" style="mix-blend-mode: normal;isolation: isolate">
    <g id="Group_18211" data-name="Group 18211" transform="translate(9.3 23.393)">
      <g id="Group_18210" data-name="Group 18210">
        <path id="Path_2749" data-name="Path 2749" d="M153.956,384.347a.635.635,0,0,0-.035-.114.615.615,0,0,0-.056-.1.592.592,0,0,0-.168-.168.6.6,0,0,0-.105-.056.577.577,0,0,0-.114-.035.609.609,0,0,0-.352.035.621.621,0,0,0-.1.056.609.609,0,0,0-.224.273.59.59,0,0,0-.035.114.586.586,0,0,0,0,.237.573.573,0,0,0,.035.114.565.565,0,0,0,.056.105.592.592,0,0,0,.168.168.613.613,0,0,0,.1.056.586.586,0,0,0,.114.035.583.583,0,0,0,.237,0,.569.569,0,0,0,.114-.035.6.6,0,0,0,.105-.056.592.592,0,0,0,.168-.168.6.6,0,0,0,.056-.105.616.616,0,0,0,.035-.114.585.585,0,0,0,0-.237Z" transform="translate(-152.75 -383.857)"/>
      </g>
    </g>
    <g id="Group_18213" data-name="Group 18213" transform="translate(0 18.891)">
      <g id="Group_18212" data-name="Group 18212">
        <path id="Path_2750" data-name="Path 2750" d="M28.006,315.1,28,315.083a2.532,2.532,0,0,0-3.43-1.265l-4.242,1.173a2.78,2.78,0,0,0-1.722-1.7l-.016-.006-4.663-1.582a4.809,4.809,0,0,0-3.88-1.785,4.869,4.869,0,0,0-3.8,2.281H.609a.609.609,0,0,0-.609.609v7.676a.609.609,0,0,0,.609.609h3.62a.609.609,0,0,0,.609-.609v-.526h1.7a.609.609,0,0,0,.609-.609v-.175a4.316,4.316,0,0,1,2.224.8,36.853,36.853,0,0,0,3.658,1.868l.027.011a5.465,5.465,0,0,0,1.959.369,4.853,4.853,0,0,0,2.017-.432l9.376-3.357.049-.02A2.6,2.6,0,0,0,28.006,315.1ZM3.62,319.879h-2.4V313.42h2.4Zm2.306-1.135H4.838V313.42H5.926ZM25.967,317.3,16.6,320.654l-.027.011-.025.011a3.946,3.946,0,0,1-3.032.052,35.274,35.274,0,0,1-3.535-1.806,5.479,5.479,0,0,0-2.832-.963v-4.9a3.76,3.76,0,0,1,2.9-1.914,3.513,3.513,0,0,1,2.98,1.4.609.609,0,0,0,.323.258l4.839,1.642a1.366,1.366,0,0,1,.994,1.612,1.186,1.186,0,0,1-1.458.819l-5.455-1.729A.609.609,0,1,0,11.9,316.3l5.464,1.732.017.005a2.39,2.39,0,0,0,1.828-.212,2.388,2.388,0,0,0,1.142-1.443q.021-.074.037-.148l4.571-1.266c.66-.226,1.527-.307,1.913.582C27.275,316.6,26.237,317.17,25.967,317.3Z" transform="translate(0 -309.922)"/>
      </g>
    </g>
    <g id="Group_18215" data-name="Group 18215" transform="translate(20.655 7.541)">
      <g id="Group_18214" data-name="Group 18214">
        <path id="Path_2751" data-name="Path 2751" d="M340.456,123.988a.59.59,0,0,0-.035-.114.574.574,0,0,0-.056-.1.592.592,0,0,0-.168-.168.618.618,0,0,0-.1-.056.606.606,0,0,0-.352-.035.573.573,0,0,0-.114.035.6.6,0,0,0-.105.056.591.591,0,0,0-.168.168.617.617,0,0,0-.056.1.588.588,0,0,0-.035.114.585.585,0,0,0,0,.237.571.571,0,0,0,.035.114.6.6,0,0,0,.056.105.592.592,0,0,0,.168.168.6.6,0,0,0,.105.056.615.615,0,0,0,.114.035.6.6,0,0,0,.119.012.61.61,0,0,0,.119-.012.644.644,0,0,0,.114-.035.617.617,0,0,0,.1-.056.592.592,0,0,0,.168-.168.562.562,0,0,0,.056-.105.572.572,0,0,0,.035-.114.615.615,0,0,0,0-.237Z" transform="translate(-339.25 -123.498)"/>
      </g>
    </g>
    <g id="Group_18217" data-name="Group 18217" transform="translate(1.808 0.023)">
      <g id="Group_18216" data-name="Group 18216" transform="translate(0 0)">
        <path id="Path_2752" data-name="Path 2752" d="M58.447,2.085h-3.62a.609.609,0,0,0-.609.609V3.22h-1.7a.609.609,0,0,0-.609.609V4a4.317,4.317,0,0,1-2.224-.8A36.841,36.841,0,0,0,46.03,1.338L46,1.327a5.18,5.18,0,0,0-3.976.063l-2.45.877L37.512.2a.609.609,0,0,0-.861,0l-6.78,6.78a.6.6,0,0,0,0,.861L41.457,19.428a.658.658,0,0,0,.861,0l6.19-6.19c.161.014.328.021.5.021a4.869,4.869,0,0,0,3.8-2.28h5.636a.609.609,0,0,0,.609-.609V2.694A.609.609,0,0,0,58.447,2.085ZM37.082,1.493l1.388,1.388a2.654,2.654,0,0,1-2.775,0ZM32.551,8.8,31.163,7.412l1.388-1.388a2.655,2.655,0,0,1,0,2.775Zm9.337,9.337L40.5,16.749a2.651,2.651,0,0,1,2.775,0Zm2.265-2.265a3.869,3.869,0,0,0-4.529,0l-6.2-6.2a3.869,3.869,0,0,0,0-4.53l1.389-1.389a3.869,3.869,0,0,0,4.53,0l1.317,1.317A2.413,2.413,0,0,0,38.852,6.4a3.47,3.47,0,1,0,3.99,4.3l2.056.7a3.887,3.887,0,0,0,.645,3.086Zm-3.7-5.986.016.006,1.217.413a2.253,2.253,0,1,1-3.058-2.573A2.7,2.7,0,0,0,40.45,9.886ZM46.42,13.6a2.663,2.663,0,0,1-.389-1.266,4.734,4.734,0,0,0,1.074.581Zm5.492-3.477a3.76,3.76,0,0,1-2.9,1.914A4.432,4.432,0,0,1,48.374,12h0a3.487,3.487,0,0,1-2.255-1.234c-.012-.018-.065-.087-.073-.1a.607.607,0,0,0-.336-.279L40.866,8.742a1.366,1.366,0,0,1-.994-1.611h0v0a1.186,1.186,0,0,1,1.457-.817L46.785,8.04a.609.609,0,0,0,.368-1.161L42.815,5.5l-.038-.038h0L40.53,3.219l1.931-.691.021-.008.006,0,.025-.011a3.946,3.946,0,0,1,3.032-.052A35.268,35.268,0,0,1,49.079,4.26a5.479,5.479,0,0,0,2.832.963Zm2.307-.366H53.129V4.437h1.089Zm3.62,0h-2.4V3.3h2.4Z" transform="translate(-29.691 -0.023)"/>
      </g>
    </g>
  </g>
</svg>
