<svg xmlns="http://www.w3.org/2000/svg" width="10.144" height="14.836" viewBox="0 0 10.144 14.836">
  <g id="pin_1_" data-name="pin (1)" transform="translate(0)">
    <g id="Group_16927" data-name="Group 16927">
      <path id="Path_2267" data-name="Path 2267" d="M90.4,0a5.016,5.016,0,0,0-5.072,4.945,4.857,4.857,0,0,0,.609,2.35l4.186,7.381a.321.321,0,0,0,.555,0l4.187-7.384a4.856,4.856,0,0,0,.607-2.348A5.016,5.016,0,0,0,90.4,0Zm0,7.418a2.508,2.508,0,0,1-2.536-2.473,2.537,2.537,0,0,1,5.072,0A2.508,2.508,0,0,1,90.4,7.418Z" transform="translate(-85.333)" fill="#c4c4c4"/>
    </g>
  </g>
</svg>
